- 
http://www.Speed.Cd      fast  and The Hottest Private Tracker on the net

   signup is open now

Please Seed back to make the speed Faster!!!

------------------nfo--------------------------
-








































          
          
              
              
                    
                    
                    
                    

The.Smurfs.2011.BRRip.XviD.AC3-SiC

Poster:
[img]http://img840.imageshack.us/img840/5924/mv5bmty4mdc2nzq4mf5bml5.jpg[/img]

IMDB Link: 
http://www.imdb.com/title/tt0472181/

Description:
When the evil wizard Gargamel chases the tiny blue Smurfs out of their village, they tumble from their magical world into New York City. 

General
Complete name                    : The.Smurfs.2011.BRRip.XviD.AC3-SiC.avi
Format                           : AVI
Format/Info                      : Audio Video Interleave
File size                        : 1.37 GiB
Duration                         : 1h 42mn
Overall bit rate                 : 1 904 Kbps

Video
ID                               : 0
Format                           : MPEG-4 Visual
Format profile                   : Advanced Simple@L5
Format settings, BVOP            : 2
Format settings, QPel            : No
Format settings, GMC             : No warppoints
Format settings, Matrix          : Default (MPEG)
Muxing mode                      : Packed bitstream
Codec ID                         : XVID
Codec ID/Hint                    : XviD
Duration                         : 1h 42mn
Bit rate                         : 1 512 Kbps
Width                            : 720 pixels
Height                           : 384 pixels
Display aspect ratio             : 1.875
Frame rate                       : 23.976 fps
Color space                      : YUV
Chroma subsampling               : 4:2:0
Bit depth                        : 8 bits
Scan type                        : Progressive
Compression mode                 : Lossy
Bits/(Pixel*Frame)               : 0.228
Stream size                      : 1.08 GiB (79%)
Writing library                  : XviD 64

Audio
ID                               : 1
Format                           : AC-3
Format/Info                      : Audio Coding 3
Mode extension                   : CM (complete main)
Codec ID                         : 2000
Duration                         : 1h 42mn
Bit rate mode                    : Constant
Bit rate                         : 384 Kbps
Channel(s)                       : 6 channels
Channel positions                : Front: L C R, Side: L R, LFE
Sampling rate                    : 48.0 KHz
Bit depth                        : 16 bits
Compression mode                 : Lossy
Stream size                      : 282 MiB (20%)
Alignment                        : Aligned on interleaves
Interleave, duration             : 64 ms (1.53 video frames)
Interleave, preload duration     : 192 ms
Title                            : f-smurfs.720 - [2] English


Screenshots:
[IMG]http://img442.imageshack.us/img442/7/snap1th.png[/IMG]
[IMG]http://img694.imageshack.us/img694/7296/snap2oo.png[/IMG]
[IMG]http://img213.imageshack.us/img213/9580/snap3ne.png[/IMG]
[IMG]http://img163.imageshack.us/img163/844/snap4a.png[/IMG]
[IMG]http://img254.imageshack.us/img254/6131/snap5u.png[/IMG]
[IMG]http://img256.imageshack.us/img256/9361/snap6r.png[/IMG]

Note: N/A

Source: 720p Felony Thanks :)

Enjoy!

Respects to CM8, Rx, THC, ELEKTRI4KA, PA, YeFsTe, Box, MrRep and everyone in the struggle...